<svg xmlns="http://www.w3.org/2000/svg" viewBox="0 0 16 16"><path fill="#BF9354" d="M1.5 4.1c0-.66.54-1.2 1.2-1.2h3.12c.34 0 .66.14.89.39l.95 1.01h5.64c.66 0 1.2.54 1.2 1.2v6.4c0 .66-.54 1.2-1.2 1.2H2.7c-.66 0-1.2-.54-1.2-1.2z"/><path fill="rgba(0,0,0,.14)" d="M1.5 5.55h13v.85h-13z"/><path fill="#1E6EA8" d="M7.43 5.83L9.07 5.83A.25 .25 0 0 1 9.32 6.08L9.32 7.72A.25 .25 0 0 1 9.07 7.96L7.43 7.96A.25 .25 0 0 1 7.19 7.72L7.19 6.08A.25 .25 0 0 1 7.43 5.83ZM10.22 5.83L11.86 5.83A.25 .25 0 0 1 12.11 6.08L12.11 7.72A.25 .25 0 0 1 11.86 7.96L10.22 7.96A.25 .25 0 0 1 9.97 7.72L9.97 6.08A.25 .25 0 0 1 10.22 5.83ZM5.79 8.86L13.01 8.86 13.01 10.5A3.61 1.97 0 0 1 5.79 10.5Z"/></svg>
