<svg xmlns="http://www.w3.org/2000/svg" viewBox="0 0 16 16"><path fill="#8F6D37" d="M1.5 4.1c0-.66.54-1.2 1.2-1.2h3.12c.34 0 .66.14.89.39l.95 1.01h4.94c.66 0 1.2.54 1.2 1.2v1h-12z"/><path fill="#C09553" d="M2.42 6.5h11.62c.78 0 1.35.73 1.17 1.49l-.98 3.9c-.13.54-.61.91-1.17.91H2.7c-.66 0-1.2-.54-1.2-1.2V7.7c0-.66.42-1.2.92-1.2z"/><path fill="#8A6018" d="M10.33 6.75 C11.42 8.06 12.34 9.1 12.34 10.28 C12.34 11.55 11.34 12.55 10.16 12.55 C8.98 12.55 7.98 11.55 7.98 10.28 C7.98 9.37 8.41 8.54 9.07 8.01 C9.05 8.98 9.29 9.54 9.72 9.85 C10.29 9.24 10.51 8.06 10.33 6.75 Z"/></svg>
